HIERARCHY
ROOT Hips
{
	OFFSET 0.000000 0.000000 0.000000
	CHANNELS 6 Xposition Yposition Zposition Zrotation Yrotation Xrotation 
	JOINT LHipJoint
	{
		OFFSET 0.000000 0.000000 0.000000
		CHANNELS 3 Zrotation Yrotation Xrotation
		JOINT LeftUpLeg
		{
			OFFSET 1.363060 -1.794630 0.839290
			CHANNELS 3 Zrotation Yrotation Xrotation
			JOINT LeftLeg
			{
				OFFSET 2.448110 -6.726130 0.000000
				CHANNELS 3 Zrotation Yrotation Xrotation
				JOINT LeftFoot
				{
					OFFSET 2.562200 -7.039590 0.000000
					CHANNELS 3 Zrotation Yrotation Xrotation
					JOINT LeftToeBase
					{
						OFFSET 0.157640 -0.433110 2.322550
						CHANNELS 3 Zrotation Yrotation Xrotation
						End Site
						{
							OFFSET 0.000000 0.000000 0.000000
						}
					}
				}
			}
		}
	}
	JOINT RHipJoint
	{
		OFFSET 0.000000 0.000000 0.000000
		CHANNELS 3 Zrotation Yrotation Xrotation
		JOINT RightUpLeg
		{
			OFFSET -1.305520 -1.794630 0.839290
			CHANNELS 3 Zrotation Yrotation Xrotation
			JOINT RightLeg
			{
				OFFSET -2.542530 -6.985550 0.000000
				CHANNELS 3 Zrotation Yrotation Xrotation
				JOINT RightFoot
				{
					OFFSET -2.568260 -7.056230 0.000000
					CHANNELS 3 Zrotation Yrotation Xrotation
					JOINT RightToeBase
					{
						OFFSET -0.164730 -0.452590 2.363150
						CHANNELS 3 Zrotation Yrotation Xrotation
						End Site
						{
							OFFSET 0.000000 0.000000 0.000000
						}
					}
				}
			}
		}
	}
	JOINT LowerBack
	{
		OFFSET 0.000000 0.000000 0.000000
		CHANNELS 3 Zrotation Yrotation Xrotation
		JOINT Spine
		{
			OFFSET 0.028270 2.035590 -0.193380
			CHANNELS 3 Zrotation Yrotation Xrotation
			JOINT Spine1
			{
				OFFSET 0.056720 2.048850 -0.042750
				CHANNELS 3 Zrotation Yrotation Xrotation
				JOINT Neck
				{
					OFFSET 0.000000 0.000000 0.000000
					CHANNELS 3 Zrotation Yrotation Xrotation
					JOINT Neck1
					{
						OFFSET -0.054170 1.746240 0.172020
						CHANNELS 3 Zrotation Yrotation Xrotation
						JOINT Head
						{
							OFFSET 0.104070 1.761360 -0.123970
							CHANNELS 3 Zrotation Yrotation Xrotation
							End Site
							{
								OFFSET 0.000000 0.000000 0.000000
							}
						}
					}
				}
				JOINT LeftShoulder
				{
					OFFSET 0.000000 0.000000 0.000000
					CHANNELS 3 Zrotation Yrotation Xrotation
					JOINT LeftArm
					{
						OFFSET 3.362410 1.200890 -0.311210
						CHANNELS 3 Zrotation Yrotation Xrotation
						JOINT LeftForeArm
						{
							OFFSET 4.983000 -0.000000 -0.000000
							CHANNELS 3 Zrotation Yrotation Xrotation
							JOINT LeftHand
							{
								OFFSET 3.483560 -0.000000 -0.000000
								CHANNELS 3 Zrotation Yrotation Xrotation
								JOINT LeftFingerBase
								{
									OFFSET 0.000000 0.000000 0.000000
									CHANNELS 3 Zrotation Yrotation Xrotation
									JOINT LeftHandIndex1
									{
										OFFSET 0.715260 -0.000000 -0.000000
										CHANNELS 3 Zrotation Yrotation Xrotation
										End Site
										{
											OFFSET 0.000000 0.000000 0.000000
										}
									}
								}
								JOINT LThumb
								{
									OFFSET 0.000000 0.000000 0.000000
									CHANNELS 3 Zrotation Yrotation Xrotation
									End Site
									{
										OFFSET 0.000000 0.000000 0.000000
									}
								}
							}
						}
					}
				}
				JOINT RightShoulder
				{
					OFFSET 0.000000 0.000000 0.000000
					CHANNELS 3 Zrotation Yrotation Xrotation
					JOINT RightArm
					{
						OFFSET -3.136600 1.374050 -0.404650
						CHANNELS 3 Zrotation Yrotation Xrotation
						JOINT RightForeArm
						{
							OFFSET -5.241900 -0.000000 -0.000000
							CHANNELS 3 Zrotation Yrotation Xrotation
							JOINT RightHand
							{
								OFFSET -3.444170 -0.000000 -0.000000
								CHANNELS 3 Zrotation Yrotation Xrotation
								JOINT RightFingerBase
								{
									OFFSET 0.000000 0.000000 0.000000
									CHANNELS 3 Zrotation Yrotation Xrotation
									JOINT RightHandIndex1
									{
										OFFSET -0.622530 -0.000000 -0.000000
										CHANNELS 3 Zrotation Yrotation Xrotation
										End Site
										{
											OFFSET 0.000000 0.000000 0.000000
										}
									}
								}
								JOINT RThumb
								{
									OFFSET 0.000000 0.000000 0.000000
									CHANNELS 3 Zrotation Yrotation Xrotation
									End Site
									{
										OFFSET 0.000000 0.000000 0.000000
									}
								}
							}
						}
					}
				}
			}
		}
	}
}
MOTION
Frames: 5
Frame Time: 0.008333
5.150036 16.162827 1.425052 9.999168 -82.725322 8.777142 -12.620965 4.099843 1.897260 -3.010248 -0.535035 -20.826903 2.777954 3.872145 82.443992 3.347415 21.292769 7.543614 4.951600 0.000000 -36.413700 9.344847 -2.274976 2.652097 10.873176 2.194352 -22.832784 1.561619 -1.769354 42.130525 -3.753724 -10.705153 -29.194145 4.421400 0.000000 -41.877000 2.772449 -2.047232 -5.753665 1.087804 -2.267312 -3.923911 -0.586791 -2.363015 -0.067051 -2.598866 -6.104916 -6.512099 0.585647 0.022932 0.357556 0.000000 0.000000 0.000000 21.791981 1.118850 2.350652 23.022144 -66.897877 -13.095130 -0.447236 -36.459691 0.061236 -27.268427 5.825922 -1.448027 0.653823 -0.014619 0.000000 0.000000 0.000000 0.000000 0.000000 0.000000 0.000000 -12.014420 -2.092034 0.173200 -4.220293 73.537072 5.962282 0.103884 36.402348 0.029569 18.008231 -9.726910 -1.585299 -0.326360 0.085854 0.000000 0.000000 0.000000 0.000000 0.000000 0.000000 0.000000 
4.869574 16.271798 1.411877 13.155605 -82.215710 5.508142 -12.464990 3.952314 2.028311 -4.159814 -1.370766 -21.984063 2.669730 3.821231 81.496898 3.282417 21.098254 5.327235 4.237400 0.000000 -35.463900 9.451182 -2.326080 2.492371 10.286273 1.667937 -20.305491 1.527304 -1.561895 39.469654 -3.520541 -10.429450 -26.956637 3.824400 0.000000 -44.768600 2.138402 -1.966402 -5.663583 0.952461 -2.129327 -3.910809 -0.569437 -2.231221 -0.119289 -2.847826 -6.102198 -6.416719 0.526162 0.016781 0.382903 0.000000 0.000000 0.000000 21.499246 1.075359 2.100387 21.940756 -67.654595 -12.852033 -0.368973 -38.147929 0.064144 -28.878902 7.717828 -2.046812 0.676773 -0.059195 0.000000 0.000000 0.000000 0.000000 0.000000 0.000000 0.000000 -11.965855 -1.967190 0.354194 -3.572532 72.394598 6.516624 0.087156 36.800767 0.030719 17.195818 -9.521345 -1.479511 -0.314314 0.074897 0.000000 0.000000 0.000000 0.000000 0.000000 0.000000 0.000000 
4.588422 16.387481 1.403983 15.612730 -81.804016 2.947797 -12.294184 3.808909 2.139840 -5.276705 -2.124334 -23.092868 2.519009 3.767251 80.232870 3.214507 20.829569 3.111500 3.510900 0.000001 -34.397200 9.555887 -2.386763 2.324881 9.720238 1.136830 -17.843745 1.477496 -1.374717 36.765941 -3.215889 -9.954400 -24.212448 3.089100 -0.000000 -48.482199 1.603597 -1.867386 -5.543771 0.830480 -1.981930 -3.898615 -0.572112 -2.087316 -0.198081 -3.088808 -6.005321 -6.323937 0.447339 0.009327 0.406525 0.000000 0.000000 0.000000 21.109715 1.023738 1.850877 20.756663 -68.300334 -12.646857 -0.269773 -39.869940 0.069044 -29.733975 9.188953 -2.517107 0.686125 -0.086076 0.000000 0.000000 0.000000 0.000000 0.000000 0.000000 0.000000 -11.850526 -1.707052 0.546187 -3.058089 71.173760 6.607559 0.068491 37.286565 0.032338 16.480214 -9.139913 -1.358518 -0.304943 0.059435 0.000000 0.000000 0.000000 0.000000 0.000000 0.000000 0.000000 
4.306699 16.508702 1.401207 17.546764 -81.497765 0.915055 -12.108840 3.667286 2.230426 -6.345575 -2.787529 -24.139682 2.327498 3.704891 78.633906 3.146989 20.490470 1.014498 2.817200 0.000000 -33.497400 9.660823 -2.463410 2.143900 9.170148 0.566336 -15.476658 1.415840 -1.217641 34.052754 -2.842098 -9.272401 -20.937594 2.252000 0.000000 -52.894800 1.170827 -1.752107 -5.390418 0.722929 -1.827461 -3.885387 -0.594760 -1.933846 -0.297654 -3.313426 -5.829261 -6.238017 0.352492 0.000905 0.427139 0.000000 0.000000 0.000000 20.625458 0.993122 1.604786 19.526520 -68.855434 -12.529893 -0.151638 -41.624354 0.076240 -29.835116 10.170616 -2.796611 0.684715 -0.094518 -0.000000 0.000000 0.000000 0.000000 0.000000 0.000000 0.000000 -11.672565 -1.331901 0.749139 -2.692332 69.886387 6.227838 0.050602 37.868958 0.034490 15.925091 -8.601559 -1.232621 -0.299373 0.039892 0.000000 0.000000 0.000000 0.000000 0.000000 0.000000 0.000000 
4.024324 16.634044 1.402805 19.154674 -81.297303 -0.789291 -11.908619 3.527607 2.298996 -7.365819 -3.354311 -25.109898 2.099045 3.629877 76.688390 3.081320 20.084503 -0.895679 2.184900 0.000000 -32.600100 9.770808 -2.558120 1.944276 8.614028 -0.075891 -13.233885 1.344789 -1.099601 31.380786 -2.410845 -8.387576 -17.147047 1.376600 0.000000 -57.689600 0.822846 -1.623003 -5.199043 0.626928 -1.666936 -3.869388 -0.636297 -1.772192 -0.414157 -3.509707 -5.593579 -6.161203 0.246267 -0.008102 0.444150 0.000000 0.000000 0.000000 20.059375 1.004823 1.362310 18.286126 -69.342706 -12.541976 -0.018517 -43.406934 0.085403 -29.238868 10.641504 -2.862519 0.674900 -0.085020 0.000000 0.000000 0.000000 0.000000 0.000000 0.000000 0.000000 -11.438198 -0.867555 0.961122 -2.449045 68.547143 5.400928 0.035082 38.551001 0.037264 15.570445 -7.938933 -1.109317 -0.298310 0.016848 0.000000 0.000000 0.000000 0.000000 0.000000 0.000000 0.000000 
